<svg width="242" height="150" viewBox="0 0 242 150" fill="none" xmlns="http://www.w3.org/2000/svg">
<path d="M34.7191 8C34.7191 12.4183 38.3008 16 42.7191 16C47.1374 16 50.7191 12.4183 50.7191 8C50.7191 3.58172 47.1374 0 42.7191 0C38.3008 0 34.7191 3.58172 34.7191 8ZM242 130.786L225.506 125.499L229.174 142.427L242 130.786ZM38.9656 10.1035C38.4334 10.7384 38.5168 11.6845 39.1517 12.2166C39.7867 12.7487 40.7328 12.6654 41.2649 12.0304L38.9656 10.1035ZM36.334 18.0733C36.849 17.4244 36.7404 16.4809 36.0915 15.9659C35.4426 15.4509 34.4991 15.5594 33.9841 16.2083L36.334 18.0733ZM29.0995 22.5528C28.6042 23.2168 28.7411 24.1567 29.4051 24.6519C30.0692 25.1472 31.0091 25.0104 31.5043 24.3463L29.0995 22.5528ZM26.9213 30.7057C27.3941 30.0255 27.226 29.0908 26.5458 28.6179C25.8656 28.1451 24.9308 28.3132 24.458 28.9934L26.9213 30.7057ZM20.0747 35.5522C19.6277 36.2496 19.8306 37.1774 20.5281 37.6245C21.2255 38.0715 22.1533 37.8686 22.6004 37.1711L20.0747 35.5522ZM18.4876 43.8966C18.904 43.1805 18.661 42.2623 17.9448 41.8459C17.2286 41.4295 16.3105 41.6726 15.8941 42.3887L18.4876 43.8966ZM12.0458 49.3953C11.6657 50.1313 11.9543 51.0362 12.6904 51.4163C13.4265 51.7963 14.3313 51.5077 14.7114 50.7717L12.0458 49.3953ZM11.3284 57.8058C11.665 57.0488 11.3241 56.1623 10.5671 55.8258C9.81008 55.4893 8.92361 55.8302 8.5871 56.5872L11.3284 57.8058ZM5.58968 63.9892C5.30622 64.7676 5.70746 65.6285 6.48588 65.9119C7.26431 66.1954 8.12513 65.7941 8.40859 65.0157L5.58968 63.9892ZM6.04822 72.4076C6.26625 71.6084 5.79509 70.7838 4.99587 70.5657C4.19665 70.3477 3.37201 70.8189 3.15398 71.6181L6.04822 72.4076ZM1.41739 79.4702C1.28065 80.2873 1.83217 81.0605 2.64924 81.1972C3.4663 81.334 4.23951 80.7824 4.37624 79.9654L1.41739 79.4702ZM3.55416 87.6339C3.59045 86.8063 2.94894 86.1059 2.12131 86.0696C1.29367 86.0334 0.593326 86.6749 0.557035 87.5025L3.55416 87.6339ZM0.777497 95.6086C0.861971 96.4327 1.59852 97.0323 2.42263 96.9478C3.24674 96.8634 3.84633 96.1268 3.76186 95.3027L0.777497 95.6086ZM5.16166 102.801C4.94042 102.002 4.11389 101.534 3.31555 101.756C2.51721 101.977 2.04938 102.803 2.27061 103.602L5.16166 102.801ZM5.14615 111.226C5.50803 111.971 6.4055 112.282 7.15071 111.92C7.89592 111.558 8.20667 110.661 7.84479 109.916L5.14615 111.226ZM11.7844 116.44C11.2944 115.772 10.3557 115.627 9.68771 116.117C9.01969 116.607 8.87534 117.546 9.36528 118.214L11.7844 116.44ZM14.7056 124.341C15.2985 124.92 16.2481 124.908 16.8267 124.315C17.4053 123.722 17.3937 122.773 16.8008 122.194L14.7056 124.341ZM22.6606 127.134C21.992 126.644 21.0535 126.79 20.5642 127.458C20.075 128.127 20.2203 129.065 20.8888 129.554L22.6606 127.134ZM27.673 133.914C28.3943 134.321 29.3094 134.067 29.7168 133.345C30.1242 132.624 29.8698 131.709 29.1485 131.301L27.673 133.914ZM36.0873 134.775C35.33 134.44 34.4439 134.781 34.108 135.539C33.7722 136.296 34.1139 137.182 34.8712 137.518L36.0873 134.775ZM42.3613 140.476C43.143 140.751 43.9991 140.339 44.2733 139.558C44.5476 138.776 44.1363 137.92 43.3546 137.646L42.3613 140.476ZM50.7486 139.962C49.9505 139.74 49.1233 140.207 48.9009 141.005C48.6785 141.803 49.1451 142.63 49.9432 142.852L50.7486 139.962ZM57.6446 144.765C58.4537 144.942 59.2539 144.431 59.4318 143.622C59.6097 142.813 59.0981 142.013 58.289 141.835L57.6446 144.765ZM65.9776 143.33C65.161 143.191 64.386 143.74 64.2466 144.557C64.1072 145.373 64.6562 146.148 65.4728 146.288L65.9776 143.33ZM73.4371 147.475C74.2587 147.58 75.0104 147 75.116 146.178C75.2216 145.356 74.6411 144.605 73.8195 144.499L73.4371 147.475ZM81.5148 145.348C80.6899 145.271 79.9591 145.878 79.8823 146.703C79.8056 147.528 80.4121 148.259 81.237 148.335L81.5148 145.348ZM89.1693 148.945C89.9962 148.996 90.7077 148.367 90.7585 147.54C90.8094 146.713 90.1803 146.002 89.3534 145.951L89.1693 148.945ZM97.2394 146.323C96.4115 146.296 95.7178 146.944 95.69 147.772C95.6623 148.6 96.311 149.294 97.1389 149.322L97.2394 146.323ZM105.005 149.487C105.834 149.494 106.511 148.828 106.519 148C106.526 147.172 105.86 146.494 105.032 146.487L105.005 149.487ZM113.01 146.465C112.182 146.477 111.52 147.157 111.531 147.986C111.543 148.814 112.224 149.476 113.052 149.465L113.01 146.465ZM120.856 149.277C121.684 149.249 122.332 148.555 122.304 147.727C122.276 146.899 121.582 146.251 120.754 146.279L120.856 149.277ZM128.738 145.931C127.91 145.975 127.275 146.681 127.319 147.509C127.363 148.336 128.069 148.971 128.896 148.927L128.738 145.931ZM136.679 148.45C137.505 148.392 138.129 147.676 138.071 146.849C138.013 146.023 137.297 145.4 136.47 145.457L136.679 148.45ZM144.444 144.837C143.619 144.908 143.007 145.634 143.078 146.46C143.149 147.285 143.875 147.897 144.701 147.826L144.444 144.837ZM152.461 147.104C153.285 147.022 153.886 146.287 153.804 145.462C153.721 144.638 152.986 144.037 152.162 144.119L152.461 147.104ZM160.074 143.271C159.251 143.365 158.66 144.109 158.754 144.932C158.848 145.755 159.591 146.346 160.414 146.252L160.074 143.271ZM168.205 145.314C169.027 145.21 169.609 144.459 169.505 143.638C169.401 142.816 168.65 142.234 167.828 142.338L168.205 145.314ZM175.656 141.299C174.836 141.413 174.263 142.17 174.377 142.991C174.491 143.811 175.248 144.384 176.069 144.27L175.656 141.299ZM183.928 143.135C184.747 143.012 185.312 142.248 185.189 141.429C185.066 140.61 184.302 140.045 183.483 140.168L183.928 143.135ZM191.21 138.967C190.392 139.098 189.836 139.868 189.967 140.686C190.098 141.504 190.868 142.06 191.686 141.929L191.21 138.967ZM199.613 140.614C200.43 140.474 200.978 139.699 200.839 138.883C200.699 138.066 199.924 137.517 199.107 137.657L199.613 140.614ZM206.759 136.312C205.944 136.459 205.402 137.239 205.549 138.054C205.696 138.87 206.476 139.411 207.292 139.264L206.759 136.312ZM215.087 137.821C215.901 137.667 216.436 136.882 216.281 136.068C216.127 135.254 215.342 134.719 214.528 134.874L215.087 137.821ZM222.328 133.36C221.516 133.521 220.988 134.311 221.149 135.123C221.31 135.936 222.1 136.464 222.912 136.303L222.328 133.36ZM230.573 134.751C231.384 134.583 231.906 133.789 231.738 132.978C231.57 132.167 230.777 131.645 229.966 131.813L230.573 134.751ZM237.741 130.174C236.931 130.348 236.415 131.146 236.589 131.956C236.763 132.766 237.56 133.281 238.37 133.108L237.741 130.174ZM41.5818 7.022C40.6958 8.05231 39.8237 9.0795 38.9656 10.1035L41.2649 12.0304C42.1147 11.0163 42.9786 9.99883 43.8564 8.978L41.5818 7.022ZM33.9841 16.2083C32.2936 18.3383 30.6652 20.4534 29.0995 22.5528L31.5043 24.3463C33.0515 22.2719 34.6614 20.1806 36.334 18.0733L33.9841 16.2083ZM24.458 28.9934C22.925 31.1986 21.4638 33.3852 20.0747 35.5522L22.6004 37.1711C23.9684 35.037 25.4088 32.8815 26.9213 30.7057L24.458 28.9934ZM15.8941 42.3887C14.5213 44.7499 13.2382 47.0858 12.0458 49.3953L14.7114 50.7717C15.8798 48.5089 17.1386 46.2168 18.4876 43.8966L15.8941 42.3887ZM8.5871 56.5872C7.47494 59.089 6.47536 61.557 5.58968 63.9892L8.40859 65.0157C9.26926 62.6522 10.2427 60.2483 11.3284 57.8058L8.5871 56.5872ZM3.15398 71.6181C2.42677 74.2839 1.84714 76.9023 1.41739 79.4702L4.37624 79.9654C4.78833 77.503 5.3457 74.9829 6.04822 72.4076L3.15398 71.6181ZM0.557035 87.5025C0.435509 90.274 0.507812 92.9776 0.777497 95.6086L3.76186 95.3027C3.50791 92.8252 3.43865 90.268 3.55416 87.6339L0.557035 87.5025ZM2.27061 103.602C3.001 106.237 3.95871 108.781 5.14615 111.226L7.84479 109.916C6.73798 107.637 5.84421 105.264 5.16166 102.801L2.27061 103.602ZM9.36528 118.214C10.9368 120.357 12.7169 122.4 14.7056 124.341L16.8008 122.194C14.9255 120.364 13.2546 118.444 11.7844 116.44L9.36528 118.214ZM20.8888 129.554C22.9887 131.091 25.2501 132.545 27.673 133.914L29.1485 131.301C26.8215 129.987 24.6597 128.597 22.6606 127.134L20.8888 129.554ZM34.8712 137.518C37.2444 138.57 39.741 139.557 42.3613 140.476L43.3546 137.646C40.8051 136.751 38.3831 135.793 36.0873 134.775L34.8712 137.518ZM49.9432 142.852C52.4161 143.541 54.9832 144.179 57.6446 144.765L58.289 141.835C55.6787 141.26 53.1655 140.636 50.7486 139.962L49.9432 142.852ZM65.4728 146.288C68.0491 146.727 70.7038 147.123 73.4371 147.475L73.8195 144.499C71.1252 144.153 68.5114 143.763 65.9776 143.33L65.4728 146.288ZM81.237 148.335C83.8174 148.575 86.4614 148.779 89.1693 148.945L89.3534 145.951C86.6756 145.786 84.0628 145.585 81.5148 145.348L81.237 148.335ZM97.1389 149.322C99.7081 149.408 102.33 149.463 105.005 149.487L105.032 146.487C102.381 146.463 99.7831 146.409 97.2394 146.323L97.1389 149.322ZM113.052 149.465C115.608 149.429 118.209 149.367 120.856 149.277L120.754 146.279C118.127 146.368 115.546 146.43 113.01 146.465L113.052 149.465ZM128.896 148.927C131.451 148.792 134.045 148.633 136.679 148.45L136.47 145.457C133.853 145.639 131.275 145.797 128.738 145.931L128.896 148.927ZM144.701 147.826C147.252 147.607 149.838 147.367 152.461 147.104L152.162 144.119C149.553 144.38 146.981 144.62 144.444 144.837L144.701 147.826ZM160.414 146.252C162.979 145.96 165.576 145.647 168.205 145.314L167.828 142.338C165.211 142.669 162.626 142.981 160.074 143.271L160.414 146.252ZM176.069 144.27C178.658 143.911 181.278 143.533 183.928 143.135L183.483 140.168C180.844 140.564 178.235 140.941 175.656 141.299L176.069 144.27ZM191.686 141.929C194.3 141.509 196.942 141.071 199.613 140.614L199.107 137.657C196.447 138.112 193.814 138.548 191.21 138.967L191.686 141.929ZM207.292 139.264C209.865 138.8 212.463 138.319 215.087 137.821L214.528 134.874C211.913 135.37 209.323 135.849 206.759 136.312L207.292 139.264ZM222.912 136.303C225.443 135.8 227.996 135.283 230.573 134.751L229.966 131.813C227.397 132.344 224.851 132.859 222.328 133.36L222.912 136.303Z" fill="#0AD0C3"/>
</svg>
