<svg width="55" height="55" viewBox="0 0 55 55" fill="none" xmlns="http://www.w3.org/2000/svg">
<rect width="55" height="55" rx="12" fill="white"/>
<path d="M20.4358 40.9529C18.1824 39.637 16.3218 37.7624 15.0242 35.5249L28.4078 30.1898C29.8295 29.6231 30.5967 28.077 30.188 26.602L26.4417 13.081C29.0012 12.8137 31.5989 13.2083 33.9802 14.2435C36.9968 15.5548 39.4987 17.8213 41.1007 20.6941C42.7028 23.5668 43.3162 26.8865 42.8464 30.1421C42.3767 33.3976 40.8498 36.4085 38.501 38.7112C36.1522 41.0139 33.1116 42.4807 29.8473 42.8857C26.5831 43.2908 23.2762 42.6116 20.4358 40.9529Z" stroke="#1D5BA3" stroke-width="4" stroke-linecap="round" stroke-linejoin="round"/>
<mask id="path-3-inside-1_593_2740" fill="white">
<path d="M18.7195 12.2721C18.4424 11.7944 17.8288 11.6295 17.3665 11.9317C14.7322 13.6537 12.5689 16.0146 11.0826 18.801C9.5964 21.5873 8.8406 24.699 8.87778 27.846C8.8843 28.3982 9.36301 28.816 9.91413 28.78L26.016 27.7296C26.7564 27.6813 27.1882 26.8718 26.8159 26.2299L18.7195 12.2721Z"/>
</mask>
<path d="M18.7195 12.2721C18.4424 11.7944 17.8288 11.6295 17.3665 11.9317C14.7322 13.6537 12.5689 16.0146 11.0826 18.801C9.5964 21.5873 8.8406 24.699 8.87778 27.846C8.8843 28.3982 9.36301 28.816 9.91413 28.78L26.016 27.7296C26.7564 27.6813 27.1882 26.8718 26.8159 26.2299L18.7195 12.2721Z" stroke="#0AD0C3" stroke-width="8" stroke-linejoin="round" mask="url(#path-3-inside-1_593_2740)"/>
</svg>
