<svg width="55" height="55" viewBox="0 0 55 55" fill="none" xmlns="http://www.w3.org/2000/svg">
<rect width="55" height="55" rx="12" fill="white"/>
<path d="M35.1376 31.9168L33.4487 30.8455L33.3837 30.948L33.3315 31.0577L35.1376 31.9168ZM20.5068 33.335L22.1358 32.1746L22.0525 32.0578L21.9535 31.954L20.5068 33.335ZM24.0463 38.3036L25.6753 37.1432L25.6753 37.1432L24.0463 38.3036ZM31.2335 38.3182L29.5266 37.2759L29.5266 37.2759L31.2335 38.3182ZM35.1006 31.985L33.3937 30.9427L33.3937 30.9427L35.1006 31.985ZM34.5347 27.1064C34.5347 28.4801 34.138 29.7589 33.4487 30.8455L36.8264 32.9881C37.9081 31.2829 38.5347 29.2646 38.5347 27.1064H34.5347ZM27.2673 20C31.3141 20 34.5347 23.2145 34.5347 27.1064H38.5347C38.5347 20.9396 33.4569 16 27.2673 16V20ZM20 27.1064C20 23.2145 23.2205 20 27.2673 20V16C21.0777 16 16 20.9396 16 27.1064H20ZM21.9535 31.954C20.7365 30.679 20 28.9764 20 27.1064H16C16 30.0547 17.1678 32.7336 19.0601 34.7159L21.9535 31.954ZM25.6753 37.1432L22.1358 32.1746L18.8779 34.4954L22.4174 39.464L25.6753 37.1432ZM26.1786 38.7172C26.1786 38.153 26.0027 37.6028 25.6753 37.1432L22.4174 39.464C22.2621 39.246 22.1786 38.9849 22.1786 38.7172H26.1786ZM26.1786 40.8118V38.7172H22.1786V40.8118H26.1786ZM24.8915 39.5247C25.6023 39.5247 26.1786 40.101 26.1786 40.8118H22.1786C22.1786 42.3101 23.3932 43.5247 24.8915 43.5247V39.5247ZM30.4162 39.5247H24.8915V43.5247H30.4162V39.5247ZM29.1291 40.8118C29.1291 40.101 29.7054 39.5247 30.4162 39.5247V43.5247C31.9145 43.5247 33.1291 42.3101 33.1291 40.8118H29.1291ZM29.1291 38.6897V40.8118H33.1291V38.6897H29.1291ZM29.5266 37.2759C29.2666 37.7017 29.1291 38.1909 29.1291 38.6897H33.1291C33.1291 38.9264 33.0638 39.1585 32.9405 39.3605L29.5266 37.2759ZM33.3937 30.9427L29.5266 37.2759L32.9405 39.3605L36.8076 33.0273L33.3937 30.9427ZM33.3315 31.0577C33.3506 31.0176 33.3714 30.9792 33.3937 30.9427L36.8075 33.0273C36.8573 32.9459 36.9027 32.862 36.9437 32.7759L33.3315 31.0577Z" fill="#1D5BA3"/>
<path d="M26.5557 46.5151H29.4071" stroke="#1D5BA3" stroke-width="4" stroke-linecap="round"/>
<path d="M27 10L27 12" stroke="#0AD0C3" stroke-width="4" stroke-linecap="round"/>
<path d="M10 32H12" stroke="#0AD0C3" stroke-width="4" stroke-linecap="round"/>
<path d="M42 32H44" stroke="#0AD0C3" stroke-width="4" stroke-linecap="round"/>
<path d="M13 16L14.4142 17.4142" stroke="#0AD0C3" stroke-width="4" stroke-linecap="round"/>
<path d="M41.3662 16L39.952 17.4142" stroke="#0AD0C3" stroke-width="4" stroke-linecap="round"/>
</svg>
