<svg width="2228" height="404" viewBox="0 0 2228 404" fill="none" xmlns="http://www.w3.org/2000/svg">
<rect width="148.763" height="382.923" rx="74.3817" transform="matrix(0.846252 0.532783 -0.527059 0.849829 181.82 2.40808)" fill="#219EA7"/>
<path d="M287.846 61.5341C266.773 27.5558 222.261 17.2797 188.426 38.5816V38.5816C153.306 60.6927 143.725 107.867 167.443 141.905L181.934 162.702L217.436 228.739L286.944 341.782C308.479 376.804 354.256 387.466 389.047 365.562V365.562C423.744 343.717 434.354 297.762 412.744 262.918L287.846 61.5341Z" fill="#12EDDF"/>
<path fill-rule="evenodd" clip-rule="evenodd" d="M362.258 16.8557L212.22 16.8557C150.875 16.8557 118.104 104.905 118.104 104.905C118.104 104.905 146.367 126.332 161.799 142.876C188.867 171.895 216.418 228.724 216.418 228.724C216.418 228.724 248.772 163.784 276.499 126.917C299.403 96.4633 337.021 61.4043 362.258 39.1945V16.8557Z" fill="url(#paint0_linear_2_53)"/>
<g filter="url(#filter0_f_2_53)">
<path d="M222.968 214.626L231.112 203.686C231.145 203.642 231.173 203.596 231.197 203.547L251.502 162.347L268.416 134.891C268.44 134.852 268.468 134.814 268.498 134.779L296.704 101.813" stroke="#159990" stroke-width="3.57697" stroke-linecap="round"/>
</g>
<g filter="url(#filter1_f_2_53)">
<path d="M206.519 220.123L192.865 195.359L171.017 162.341L149.169 137.577L127.889 118.816C127.561 118.528 127.49 118.045 127.72 117.674L140.976 96.304" stroke="#159990" stroke-width="3.57697" stroke-linecap="round"/>
</g>
<path fill-rule="evenodd" clip-rule="evenodd" d="M362.258 16.8557L212.22 16.8557C150.875 16.8557 118.104 104.905 118.104 104.905C118.104 104.905 146.367 126.332 161.799 142.876C188.867 171.895 216.418 228.724 216.418 228.724C216.418 228.724 248.772 163.784 276.499 126.917C299.736 96.0214 337.148 61.1709 362.258 39.1198V16.8557Z" fill="url(#paint1_linear_2_53)"/>
<path fill-rule="evenodd" clip-rule="evenodd" d="M306.548 92.073L259.854 16.8774L362.491 16.8774V39.7631C346.401 53.7044 325.536 72.5499 306.548 92.073Z" fill="url(#paint2_linear_2_53)"/>
<path d="M1685.38 143.763H1649.44V306.392H1608.91V143.763H1586V110.74H1608.91V96.8917C1608.91 74.403 1614.78 58.0691 1626.53 47.89C1638.51 37.4741 1657.19 32.2662 1682.56 32.2662V65.9993C1670.35 65.9993 1661.77 68.3666 1656.84 73.101C1651.9 77.5988 1649.44 85.529 1649.44 96.8917V110.74H1685.38V143.763Z" fill="white"/>
<path d="M1538.47 84.8046C1531.19 84.8046 1525.08 82.319 1520.15 77.3478C1515.21 72.3766 1512.75 66.2218 1512.75 58.8834C1512.75 51.545 1515.21 45.3901 1520.15 40.419C1525.08 35.4478 1531.19 32.9622 1538.47 32.9622C1545.52 32.9622 1551.51 35.4478 1556.45 40.419C1561.38 45.3901 1563.85 51.545 1563.85 58.8834C1563.85 66.2218 1561.38 72.3766 1556.45 77.3478C1551.51 82.319 1545.52 84.8046 1538.47 84.8046ZM1558.21 110.726V306.378H1518.03V110.726H1558.21Z" fill="white"/>
<path d="M1272.78 207.682C1272.78 188.034 1276.77 170.635 1284.76 155.485C1292.99 140.334 1304.03 128.617 1317.89 120.331C1331.99 111.809 1347.61 107.548 1364.76 107.548C1377.45 107.548 1389.9 110.389 1402.12 116.07C1414.57 121.515 1424.44 128.853 1431.72 138.085V43.6328H1472.25V306.396H1431.72V276.924C1425.15 286.393 1415.98 294.205 1404.24 300.359C1392.72 306.514 1379.45 309.592 1364.41 309.592C1347.49 309.592 1331.99 305.331 1317.89 296.809C1304.03 288.05 1292.99 275.977 1284.76 260.59C1276.77 244.966 1272.78 227.33 1272.78 207.682ZM1431.72 208.392C1431.72 194.899 1428.91 183.181 1423.27 173.239C1417.86 163.297 1410.7 155.721 1401.77 150.513C1392.84 145.306 1383.21 142.702 1372.87 142.702C1362.53 142.702 1352.9 145.306 1343.97 150.513C1335.04 155.485 1327.76 162.941 1322.12 172.884C1316.72 182.59 1314.01 194.189 1314.01 207.682C1314.01 221.175 1316.72 233.012 1322.12 243.191C1327.76 253.37 1335.04 261.182 1343.97 266.626C1353.13 271.834 1362.77 274.438 1372.87 274.438C1383.21 274.438 1392.84 271.834 1401.77 266.626C1410.7 261.418 1417.86 253.843 1423.27 243.901C1428.91 233.722 1431.72 221.886 1431.72 208.392Z" fill="white"/>
<path d="M1198.2 139.143C1204.07 129.201 1211.83 121.508 1221.46 116.063C1231.33 110.382 1242.96 107.541 1256.35 107.541V149.441H1246.13C1230.39 149.441 1218.4 153.465 1210.18 161.514C1202.19 169.562 1198.2 183.529 1198.2 203.414V306.389H1158.02V110.737H1198.2V139.143Z" fill="white"/>
<path d="M1024.62 309.584C1006.3 309.584 989.734 305.442 974.932 297.156C960.13 288.634 948.5 276.798 940.042 261.648C931.583 246.261 927.354 228.507 927.354 208.385C927.354 188.5 931.701 170.864 940.394 155.477C949.087 140.09 960.952 128.254 975.989 119.969C991.026 111.684 1007.83 107.541 1026.39 107.541C1044.95 107.541 1061.75 111.684 1076.78 119.969C1091.82 128.254 1103.69 140.09 1112.38 155.477C1121.07 170.864 1125.42 188.5 1125.42 208.385C1125.42 228.27 1120.95 245.906 1112.03 261.293C1103.1 276.68 1090.88 288.634 1075.37 297.156C1060.1 305.442 1043.19 309.584 1024.62 309.584ZM1024.62 274.431C1034.96 274.431 1044.6 271.945 1053.52 266.974C1062.69 262.003 1070.09 254.546 1075.73 244.604C1081.37 234.661 1084.18 222.589 1084.18 208.385C1084.18 194.182 1081.48 182.227 1076.08 172.521C1070.68 162.579 1063.51 155.122 1054.58 150.151C1045.65 145.18 1036.02 142.694 1025.68 142.694C1015.34 142.694 1005.71 145.18 996.783 150.151C988.089 155.122 981.158 162.579 975.989 172.521C970.82 182.227 968.236 194.182 968.236 208.385C968.236 229.453 973.522 245.787 984.095 257.387C994.903 268.75 1008.41 274.431 1024.62 274.431Z" fill="white"/>
<path d="M911.674 143.763H875.727V306.392H835.197V143.763H812.289V110.74H835.197V96.8917C835.197 74.403 841.071 58.0691 852.819 47.89C864.801 37.4741 883.48 32.2662 908.855 32.2662V65.9993C896.637 65.9993 888.062 68.3666 883.128 73.101C878.194 77.5988 875.727 85.529 875.727 96.8917V110.74H911.674V143.763Z" fill="white"/>
<path d="M801.759 143.763H765.812V306.392H725.282V143.763H702.375V110.74H725.282V96.8917C725.282 74.403 731.156 58.0691 742.904 47.89C754.886 37.4741 773.565 32.2662 798.94 32.2662V65.9993C786.722 65.9993 778.147 68.3666 773.213 73.101C768.279 77.5988 765.812 85.529 765.812 96.8917V110.74H801.759V143.763Z" fill="white"/>
<path d="M475.166 207.675C475.166 188.027 479.16 170.628 487.148 155.477C495.372 140.327 506.414 128.609 520.277 120.324C534.374 111.802 549.881 107.541 566.797 107.541C582.069 107.541 595.344 110.618 606.622 116.773C618.134 122.691 627.297 130.148 634.111 139.143V110.737H674.64V306.389H634.111V277.272C627.297 286.504 618.017 294.197 606.269 300.352C594.521 306.507 581.129 309.584 566.092 309.584C549.411 309.584 534.139 305.323 520.277 296.801C506.414 288.043 495.372 275.97 487.148 260.583C479.16 244.959 475.166 227.323 475.166 207.675ZM634.111 208.385C634.111 194.892 631.292 183.174 625.653 173.232C620.249 163.289 613.083 155.714 604.155 150.506C595.226 145.298 585.593 142.694 575.255 142.694C564.917 142.694 555.284 145.298 546.356 150.506C537.428 155.477 530.145 162.934 524.506 172.877C519.102 182.582 516.4 194.182 516.4 207.675C516.4 221.168 519.102 233.004 524.506 243.183C530.145 253.363 537.428 261.174 546.356 266.619C555.519 271.827 565.152 274.431 575.255 274.431C585.593 274.431 595.226 271.827 604.155 266.619C613.083 261.411 620.249 253.836 625.653 243.894C631.292 233.714 634.111 221.878 634.111 208.385Z" fill="white"/>
<path d="M1750.14 107.58L1806.88 269.498L1783.62 313.884L1704.68 107.58H1750.14ZM1709.26 349.76V313.896H1734.98C1740.62 313.896 1745.56 313.186 1749.79 311.766C1754.02 310.582 1757.78 308.215 1761.06 304.664C1764.59 301.113 1767.53 295.905 1769.88 289.04L1842.12 107.58H1886.53L1801.24 307.505C1794.9 323.602 1786.91 335.32 1777.28 342.658C1767.64 349.997 1755.66 353.666 1741.33 353.666C1735.22 353.666 1729.46 353.311 1724.06 352.6C1718.89 352.127 1713.96 351.18 1709.26 349.76Z" fill="white"/>
<path d="M2201.73 85.8425C2194.44 85.8425 2188.34 83.3569 2183.4 78.3857C2178.47 73.4145 2176 67.2597 2176 59.9212C2176 52.5828 2178.47 46.428 2183.4 41.4568C2188.34 36.4856 2194.44 34 2201.73 34C2208.78 34 2214.77 36.4856 2219.7 41.4568C2224.64 46.428 2227.1 52.5828 2227.1 59.9212C2227.1 67.2597 2224.64 73.4145 2219.7 78.3857C2214.77 83.3569 2208.78 85.8425 2201.73 85.8425ZM2221.46 111.764V307.416H2181.29V111.764H2221.46Z" fill="white"/>
<path d="M1949 209.134C1949 189.486 1952.99 172.087 1960.98 156.937C1969.21 141.786 1980.25 130.068 1994.11 121.783C2008.21 113.261 2023.71 109 2040.63 109C2055.9 109 2069.18 112.077 2080.46 118.232C2091.97 124.15 2101.13 131.607 2107.95 140.603V112.196H2148.47V307.848H2107.95V278.731C2101.13 287.963 2091.85 295.656 2080.1 301.811C2068.36 307.966 2054.96 311.043 2039.93 311.043C2023.24 311.043 2007.97 306.782 1994.11 298.26C1980.25 289.502 1969.21 277.429 1960.98 262.042C1952.99 246.418 1949 228.782 1949 209.134ZM2107.95 209.844C2107.95 196.351 2105.13 184.633 2099.49 174.691C2094.08 164.748 2086.92 157.173 2077.99 151.965C2069.06 146.757 2059.43 144.153 2049.09 144.153C2038.75 144.153 2029.12 146.757 2020.19 151.965C2011.26 156.937 2003.98 164.393 1998.34 174.336C1992.94 184.041 1990.23 195.641 1990.23 209.134C1990.23 222.627 1992.94 234.463 1998.34 244.643C2003.98 254.822 2011.26 262.634 2020.19 268.078C2029.35 273.286 2038.99 275.89 2049.09 275.89C2059.43 275.89 2069.06 273.286 2077.99 268.078C2086.92 262.87 2094.08 255.295 2099.49 245.353C2105.13 235.174 2107.95 223.337 2107.95 209.844Z" fill="white"/>
<circle cx="1895.5" cy="284.5" r="26.5" fill="white"/>
<defs>
<filter id="filter0_f_2_53" x="218.497" y="97.3419" width="82.6783" height="121.756" filterUnits="userSpaceOnUse" color-interpolation-filters="sRGB">
<feFlood flood-opacity="0" result="BackgroundImageFix"/>
<feBlend mode="normal" in="SourceGraphic" in2="BackgroundImageFix" result="shape"/>
<feGaussianBlur stdDeviation="1.34137" result="effect1_foregroundBlur_2_53"/>
</filter>
<filter id="filter1_f_2_53" x="123.114" y="91.8325" width="87.8764" height="132.762" filterUnits="userSpaceOnUse" color-interpolation-filters="sRGB">
<feFlood flood-opacity="0" result="BackgroundImageFix"/>
<feBlend mode="normal" in="SourceGraphic" in2="BackgroundImageFix" result="shape"/>
<feGaussianBlur stdDeviation="1.34137" result="effect1_foregroundBlur_2_53"/>
</filter>
<linearGradient id="paint0_linear_2_53" x1="131.759" y1="104.905" x2="369.642" y2="34.3453" gradientUnits="userSpaceOnUse">
<stop stop-color="#1E5A9F"/>
<stop offset="1" stop-color="#1978E6"/>
</linearGradient>
<linearGradient id="paint1_linear_2_53" x1="349.927" y1="140.675" x2="131.851" y2="199.088" gradientUnits="userSpaceOnUse">
<stop stop-color="#1E5A9F"/>
<stop offset="1" stop-color="#1978E6"/>
</linearGradient>
<linearGradient id="paint2_linear_2_53" x1="123.527" y1="108.272" x2="370.522" y2="34.983" gradientUnits="userSpaceOnUse">
<stop stop-color="#FFCA34"/>
<stop offset="1" stop-color="#D6A413"/>
</linearGradient>
</defs>
</svg>
