<svg width="56" height="55" viewBox="0 0 56 55" fill="none" xmlns="http://www.w3.org/2000/svg">
<rect x="0.75" width="55" height="55" rx="12" fill="white"/>
<path d="M32.2604 39.5312C33.8425 39.5312 35.125 38.2487 35.125 36.6667V36.6667C35.125 35.1472 34.5455 33.69 33.5141 32.6155C32.4826 31.5411 31.0837 30.9375 29.625 30.9375H20C18.5413 30.9375 17.1424 31.5411 16.1109 32.6155C15.0795 33.69 14.5 35.1472 14.5 36.6667V36.6667" stroke="#1E5A9F" stroke-width="4" stroke-linecap="round" stroke-linejoin="round"/>
<path d="M24.4544 25.9245C27.935 25.9245 30.7565 23.1029 30.7565 19.6224C30.7565 16.1419 27.935 13.3203 24.4544 13.3203C20.9739 13.3203 18.1523 16.1419 18.1523 19.6224C18.1523 23.1029 20.9739 25.9245 24.4544 25.9245Z" stroke="#1E5A9F" stroke-width="4" stroke-linecap="round" stroke-linejoin="round"/>
<path d="M40.8535 21.1973V30.6504" stroke="#0AD0C3" stroke-width="4" stroke-linecap="round" stroke-linejoin="round"/>
<path d="M45.5801 25.9238H36.127" stroke="#0AD0C3" stroke-width="4" stroke-linecap="round" stroke-linejoin="round"/>
</svg>
