<svg width="55" height="55" viewBox="0 0 55 55" fill="none" xmlns="http://www.w3.org/2000/svg">
<rect width="55" height="55" rx="12" fill="white"/>
<path d="M17.7856 27.9999L27.9999 11.2856" stroke="#0AD0C3" stroke-width="3.71429" stroke-linecap="round"/>
<path d="M25.0455 16.2602L28.3714 10.9239C28.3864 10.8998 28.3993 10.8746 28.41 10.8483V10.8483C28.6145 10.3447 29.3636 10.491 29.3636 11.0346V22.6939C29.3636 23.2067 29.7794 23.6224 30.2922 23.6224H39.3345C40.0617 23.6224 40.5067 24.4206 40.1244 25.0392L27.9609 44.7196C27.4691 45.5152 26.2424 45.1667 26.2424 44.2314V33.3061C26.2424 32.7933 25.8267 32.3776 25.3139 32.3776H16.6729C15.9441 32.3776 15.4994 31.5763 15.8849 30.9578L18.3485 27.0051" stroke="#1D5BA3" stroke-width="3.71429" stroke-linecap="round"/>
</svg>
