<svg width="55" height="55" viewBox="0 0 55 55" fill="none" xmlns="http://www.w3.org/2000/svg">
<rect width="55" height="55" rx="12" fill="white"/>
<path d="M24.6357 28.932C25.2508 29.7543 26.0356 30.4348 26.9368 30.9271C27.838 31.4195 28.8345 31.7123 29.8588 31.7856C30.8831 31.859 31.9112 31.7112 32.8733 31.3523C33.8355 30.9934 34.7092 30.4317 35.4352 29.7055L39.7321 25.4086C41.0366 24.0579 41.7584 22.2489 41.7421 20.3712C41.7258 18.4935 40.9727 16.6973 39.6449 15.3695C38.3171 14.0417 36.5209 13.2886 34.6432 13.2722C32.7655 13.2559 30.9565 13.9778 29.6058 15.2823L27.1423 17.7315" stroke="#0AD0C3" stroke-width="4" stroke-linecap="round" stroke-linejoin="round"/>
<path d="M30.365 26.0679C29.7499 25.2456 28.9651 24.5652 28.0639 24.0728C27.1627 23.5805 26.1662 23.2877 25.1419 23.2143C24.1176 23.141 23.0895 23.2888 22.1274 23.6477C21.1652 24.0066 20.2915 24.5682 19.5655 25.2945L15.2686 29.5914C13.9641 30.942 13.2423 32.7511 13.2586 34.6288C13.2749 36.5065 14.0281 38.3027 15.3558 39.6304C16.6836 40.9582 18.4798 41.7114 20.3575 41.7277C22.2352 41.744 24.0442 41.0222 25.3949 39.7177L27.8441 37.2685" stroke="#1E5A9F" stroke-width="4" stroke-linecap="round" stroke-linejoin="round"/>
</svg>
